<svg width="80" height="80" viewBox="0 0 80 80" fill="none" xmlns="http://www.w3.org/2000/svg">
<path d="M32 5.33013C36.641 2.65063 42.359 2.65063 47 5.33013L66.208 16.4199C70.849 19.0994 73.708 24.0513 73.708 29.4103L73.708 51.5897C73.708 56.9487 70.849 61.9006 66.208 64.5801L47 75.6699C42.359 78.3494 36.641 78.3494 32 75.6699L12.792 64.5801C8.15098 61.9006 5.292 56.9487 5.292 51.5897L5.292 29.4103C5.292 24.0513 8.15098 19.0994 12.792 16.4199L32 5.33013Z" fill="white"/>
<path d="M31.375 35.875C31.375 32.3542 34.2292 29.5 37.75 29.5H43C46.5208 29.5 49.375 32.3542 49.375 35.875V44.125C49.375 46.4032 47.5282 48.25 45.25 48.25H35.5C33.2218 48.25 31.375 46.4032 31.375 44.125V35.875Z" stroke="black" stroke-width="2.25"/>
<path d="M36.25 38.8884L39.25 30.2869" stroke="black" stroke-width="2.25" stroke-linecap="round"/>
<path d="M41.5 38.8883L44.125 31.2424" stroke="black" stroke-width="2.25" stroke-linecap="round"/>
<path d="M23.8315 42.7773C23.8315 38.3952 27.0996 34.7763 31.3315 34.225V46.6862C31.3315 48.5502 29.8205 50.0612 27.9565 50.0612H27.2065C25.3426 50.0612 23.8315 48.5502 23.8315 46.6862V42.7773Z" stroke="black" stroke-width="2.25"/>
<path d="M56.8315 42.7773C56.8315 38.3952 53.5634 34.7763 49.3315 34.225V46.6862C49.3315 48.5502 50.8426 50.0612 52.7065 50.0612H53.4565C55.3205 50.0612 56.8315 48.5502 56.8315 46.6862V42.7773Z" stroke="black" stroke-width="2.25"/>
<path d="M19.375 48.0645C19.375 45.3671 21.2883 43.1166 23.8318 42.5961V49.6027C23.8318 50.8334 22.8341 51.8311 21.6034 51.8311H21.4976C20.3253 51.8311 19.375 50.8808 19.375 49.7085V48.0645Z" stroke="black" stroke-width="2.25"/>
<path d="M61.2881 48.0645C61.2881 45.3671 59.3748 43.1166 56.8313 42.5961V49.6027C56.8313 50.8334 57.829 51.8311 59.0597 51.8311H59.1655C60.3378 51.8311 61.2881 50.8808 61.2881 49.7085V48.0645Z" stroke="black" stroke-width="2.25"/>
</svg>
