<svg width="80" height="80" viewBox="0 0 80 80" fill="none" xmlns="http://www.w3.org/2000/svg">
<path d="M32 5.33013C36.641 2.65063 42.359 2.65063 47 5.33013L66.208 16.4199C70.849 19.0994 73.708 24.0513 73.708 29.4103L73.708 51.5897C73.708 56.9487 70.849 61.9006 66.208 64.5801L47 75.6699C42.359 78.3494 36.641 78.3494 32 75.6699L12.792 64.5801C8.15098 61.9006 5.292 56.9487 5.292 51.5897L5.292 29.4103C5.292 24.0513 8.15098 19.0994 12.792 16.4199L32 5.33013Z" fill="white"/>
<path d="M40 22.2668C35.8603 22.2668 32.4458 25.5741 32.4458 29.6684C32.4433 29.845 32.4759 30.0204 32.5418 30.1844C32.6077 30.3483 32.7055 30.4975 32.8295 30.6233C32.9536 30.7491 33.1014 30.849 33.2643 30.9172C33.4273 30.9854 33.6022 31.0205 33.7789 31.0205C33.9556 31.0205 34.1305 30.9854 34.2934 30.9172C34.4564 30.849 34.6042 30.7491 34.7283 30.6233C34.8523 30.4975 34.9501 30.3483 35.016 30.1844C35.0818 30.0204 35.1145 29.845 35.112 29.6684C35.112 27.0489 37.2681 24.9331 40 24.9331C42.7319 24.9331 44.888 27.0489 44.888 29.6684C44.888 30.9149 44.3913 32.0399 43.5827 32.8901C42.2812 34.0204 41.2892 34.5191 40.3749 35.2091C39.6072 35.7886 38.9579 36.7552 38.7502 37.9448L21.8644 49.5262C21.8597 49.5262 21.8551 49.5262 21.8505 49.5262C20.853 50.2226 20.063 51.4015 20.0036 52.7896C19.9047 55.0987 21.8691 56.9278 24.114 56.9278H55.886C58.1308 56.9278 60.0953 55.0987 59.9964 52.7896C59.937 51.4015 59.1471 50.2226 58.1495 49.5262C58.1449 49.5262 58.1403 49.5262 58.1356 49.5262L41.3609 38.0281C41.4195 37.73 41.5815 37.6528 41.9858 37.3477C42.5945 36.8882 43.8406 36.2195 45.3879 34.862C45.4169 34.8354 45.4447 34.8076 45.4712 34.7787C46.7572 33.454 47.5542 31.6446 47.5542 29.6684C47.5542 25.5741 44.1397 22.2668 40 22.2668ZM40 40.3194L56.622 51.7203H56.6359C57.2752 52.166 57.2976 52.1389 57.3302 52.9007C57.3608 53.6156 56.7051 54.2615 55.886 54.2615H24.114C23.2949 54.2615 22.6392 53.6156 22.6698 52.9007C22.7024 52.1389 22.7248 52.166 23.3641 51.7203H23.378L40 40.3194Z" fill="black"/>
</svg>
