<svg width="79" height="79" viewBox="0 0 79 79" fill="none" xmlns="http://www.w3.org/2000/svg">
<path d="M32 4.33013C36.641 1.65063 42.359 1.65063 47 4.33013L66.208 15.4199C70.849 18.0994 73.708 23.0513 73.708 28.4103L73.708 50.5897C73.708 55.9487 70.849 60.9006 66.208 63.5801L47 74.6699C42.359 77.3494 36.641 77.3494 32 74.6699L12.792 63.5801C8.15098 60.9006 5.292 55.9487 5.292 50.5897L5.292 28.4103C5.292 23.0513 8.15098 18.0994 12.792 15.4199L32 4.33013Z" fill="#FFE9DA"/>
<path d="M38.8703 49V34.825H34.9553V32.125H38.0603C38.6003 32.125 38.8703 31.855 38.8703 31.315V30.1H41.7053V49H38.8703Z" fill="black"/>
</svg>
