<svg width="79" height="79" viewBox="0 0 79 79" fill="none" xmlns="http://www.w3.org/2000/svg">
<path d="M32 4.33013C36.641 1.65063 42.359 1.65063 47 4.33013L66.208 15.4199C70.849 18.0994 73.708 23.0513 73.708 28.4103L73.708 50.5897C73.708 55.9487 70.849 60.9006 66.208 63.5801L47 74.6699C42.359 77.3494 36.641 77.3494 32 74.6699L12.792 63.5801C8.15098 60.9006 5.292 55.9487 5.292 50.5897L5.292 28.4103C5.292 23.0513 8.15098 18.0994 12.792 15.4199L32 4.33013Z" fill="#F4E7F6"/>
<path d="M32.9276 49V46.57L40.7036 38.74C41.2256 38.218 41.5856 37.759 41.7836 37.363C41.9996 36.949 42.1076 36.418 42.1076 35.77C42.1076 34.744 41.8286 33.952 41.2706 33.394C40.7306 32.818 39.9746 32.53 39.0026 32.53C38.0486 32.53 37.2476 32.872 36.5996 33.556C35.9516 34.24 35.6276 35.113 35.6276 36.175H32.7926C32.7926 34.285 33.3686 32.755 34.5206 31.585C35.6726 30.415 37.1666 29.83 39.0026 29.83C40.8386 29.83 42.3056 30.379 43.4036 31.477C44.5196 32.557 45.0776 33.988 45.0776 35.77C45.0776 36.796 44.8436 37.687 44.3756 38.443C43.9256 39.199 43.2596 40.018 42.3776 40.9L37.1126 46.165V46.3H45.3476V49H32.9276Z" fill="black"/>
</svg>
