<svg width="80" height="80" viewBox="0 0 80 80" fill="none" xmlns="http://www.w3.org/2000/svg">
<path d="M32 5.33013C36.641 2.65063 42.359 2.65063 47 5.33013L66.208 16.4199C70.849 19.0994 73.708 24.0513 73.708 29.4103L73.708 51.5897C73.708 56.9487 70.849 61.9006 66.208 64.5801L47 75.6699C42.359 78.3494 36.641 78.3494 32 75.6699L12.792 64.5801C8.15098 61.9006 5.292 56.9487 5.292 51.5897L5.292 29.4103C5.292 24.0513 8.15098 19.0994 12.792 16.4199L32 5.33013Z" fill="white"/>
<path d="M20.5 54.9032C20.5 44.1871 29.1871 35.5 39.9032 35.5V35.5C50.6193 35.5 59.3064 44.1871 59.3064 54.9032V56.0261C59.3064 57.7056 57.9448 59.0671 56.2653 59.0671H23.541C21.8615 59.0671 20.5 57.7056 20.5 56.0261V54.9032Z" stroke="black" stroke-width="2.25"/>
<rect x="37.75" y="31" width="4.5" height="4.5" fill="black"/>
<circle cx="40" cy="47.5" r="6" stroke="black" stroke-width="2.25"/>
<path d="M40 47.5L40 42.25" stroke="black" stroke-width="2.25" stroke-linecap="round"/>
<path fill-rule="evenodd" clip-rule="evenodd" d="M21.4609 23.1546C21.4609 22.1027 22.3137 21.25 23.3656 21.25H56.6346C57.6865 21.25 58.5393 22.1027 58.5393 23.1546C58.5393 23.9504 58.0513 24.6321 57.3582 24.917C57.34 24.9887 57.3079 25.0592 57.2605 25.1256C54.4325 29.0849 49.8664 31.4347 45.0009 31.4347H34.9991C30.1336 31.4347 25.5675 29.0849 22.7395 25.1256C22.692 25.0592 22.66 24.9886 22.6417 24.9169C21.9488 24.632 21.4609 23.9503 21.4609 23.1546ZM37.1038 24.1805C36.4825 24.1805 35.9788 24.6842 35.9788 25.3055C35.9788 25.9268 36.4825 26.4305 37.1038 26.4305H42.3566C42.9779 26.4305 43.4816 25.9268 43.4816 25.3055C43.4816 24.6842 42.9779 24.1805 42.3566 24.1805H37.1038Z" fill="black"/>
</svg>
