<svg width="81" height="80" viewBox="0 0 81 80" fill="none" xmlns="http://www.w3.org/2000/svg">
<path d="M32.334 5.33013C36.975 2.65063 42.693 2.65063 47.334 5.33013L66.542 16.4199C71.183 19.0994 74.042 24.0513 74.042 29.4103L74.042 51.5897C74.042 56.9487 71.183 61.9006 66.542 64.5801L47.334 75.6699C42.693 78.3494 36.975 78.3494 32.334 75.6699L13.126 64.5801C8.48496 61.9006 5.62598 56.9487 5.62598 51.5897L5.62598 29.4103C5.62598 24.0513 8.48496 19.0994 13.126 16.4199L32.334 5.33013Z" fill="white"/>
<path d="M33.2616 50V47.57L41.0376 39.74C41.5596 39.218 41.9196 38.759 42.1176 38.363C42.3336 37.949 42.4416 37.418 42.4416 36.77C42.4416 35.744 42.1626 34.952 41.6046 34.394C41.0646 33.818 40.3086 33.53 39.3366 33.53C38.3826 33.53 37.5816 33.872 36.9336 34.556C36.2856 35.24 35.9616 36.113 35.9616 37.175H33.1266C33.1266 35.285 33.7026 33.755 34.8546 32.585C36.0066 31.415 37.5006 30.83 39.3366 30.83C41.1726 30.83 42.6396 31.379 43.7376 32.477C44.8536 33.557 45.4116 34.988 45.4116 36.77C45.4116 37.796 45.1776 38.687 44.7096 39.443C44.2596 40.199 43.5936 41.018 42.7116 41.9L37.4466 47.165V47.3H45.6816V50H33.2616Z" fill="black"/>
</svg>
