<svg width="80" height="80" viewBox="0 0 80 80" fill="none" xmlns="http://www.w3.org/2000/svg">
<path d="M32 5.33013C36.641 2.65063 42.359 2.65063 47 5.33013L66.208 16.4199C70.849 19.0994 73.708 24.0513 73.708 29.4103L73.708 51.5897C73.708 56.9487 70.849 61.9006 66.208 64.5801L47 75.6699C42.359 78.3494 36.641 78.3494 32 75.6699L12.792 64.5801C8.15098 61.9006 5.292 56.9487 5.292 51.5897L5.292 29.4103C5.292 24.0513 8.15098 19.0994 12.792 16.4199L32 5.33013Z" fill="white"/>
<g clip-path="url(#clip0_1_6431)">
<path d="M44.2402 24.768L47.2805 30.8488C47.69 31.6897 48.7897 32.4873 49.7174 32.6601L55.2159 33.5657C58.7304 34.1479 59.55 36.6921 57.0272 39.2369L52.7357 43.5277C52.0242 44.2393 51.6147 45.6411 51.8521 46.6541L53.0812 51.9586C54.0515 56.142 51.8094 57.7806 48.1221 55.5812L42.9684 52.5195C42.0414 51.9586 40.4889 51.9586 39.5619 52.5195L34.4082 55.5812C30.7209 57.7592 28.4788 56.142 29.4491 51.9586L30.6782 46.6541C30.9156 45.6625 30.5055 44.2607 29.7939 43.5277L25.5031 39.2369C22.9803 36.7141 23.7999 34.1699 27.3144 33.5657L32.8129 32.6601C33.7399 32.5093 34.8403 31.6897 35.2498 30.8488L38.2901 24.768C39.9073 21.4689 42.5809 21.4689 44.2415 24.768L44.2402 24.768Z" stroke="black" stroke-width="2.25" stroke-linecap="round" stroke-linejoin="round"/>
<path d="M29.585 52.2229L40.9978 45.4658" stroke="black" stroke-width="2.25" stroke-linecap="round"/>
<path d="M30.7197 46.2039L42.6436 39.0497" stroke="black" stroke-width="2.25" stroke-linecap="round"/>
<path d="M28.334 42.0945L37.1917 36.7569" stroke="black" stroke-width="2.25" stroke-linecap="round"/>
</g>
<defs>
<clipPath id="clip0_1_6431">
<rect width="48" height="48" fill="white" transform="translate(16 16)"/>
</clipPath>
</defs>
</svg>
