<svg width="80" height="79" viewBox="0 0 80 79" fill="none" xmlns="http://www.w3.org/2000/svg">
<path d="M32.667 4.33013C37.308 1.65063 43.026 1.65063 47.667 4.33013L66.875 15.4199C71.516 18.0994 74.375 23.0513 74.375 28.4103L74.375 50.5897C74.375 55.9487 71.516 60.9006 66.875 63.5801L47.667 74.6699C43.026 77.3494 37.308 77.3494 32.667 74.6699L13.459 63.5801C8.81797 60.9006 5.95899 55.9487 5.95899 50.5897L5.95899 28.4103C5.95899 23.0513 8.81797 18.0994 13.459 15.4199L32.667 4.33013Z" fill="white"/>
<path d="M33.0578 43.6H35.8928C35.8928 44.374 36.2348 45.067 36.9188 45.679C37.6208 46.273 38.4938 46.57 39.5378 46.57C40.6538 46.57 41.5178 46.3 42.1298 45.76C42.7418 45.22 43.0478 44.5 43.0478 43.6C43.0478 42.754 42.7148 42.052 42.0488 41.494C41.4008 40.918 40.5188 40.63 39.4028 40.63H38.1878V38.065H39.4028C40.4468 38.065 41.2658 37.804 41.8598 37.282C42.4718 36.742 42.7778 36.058 42.7778 35.23C42.7778 34.456 42.4808 33.817 41.8868 33.313C41.3108 32.791 40.5278 32.53 39.5378 32.53C38.5298 32.53 37.7108 32.791 37.0808 33.313C36.4688 33.817 36.1628 34.456 36.1628 35.23H33.3278C33.3278 33.718 33.8948 32.44 35.0288 31.396C36.1808 30.352 37.6838 29.83 39.5378 29.83C41.3378 29.83 42.7958 30.352 43.9118 31.396C45.0458 32.44 45.6128 33.718 45.6128 35.23C45.6128 36.454 45.1628 37.498 44.2628 38.362C43.8668 38.74 43.4168 39.046 42.9128 39.28V39.415C43.4708 39.667 43.9658 39.982 44.3978 40.36C45.3878 41.278 45.8828 42.403 45.8828 43.735C45.8828 45.319 45.2888 46.642 44.1008 47.704C42.9308 48.748 41.4098 49.27 39.5378 49.27C37.6118 49.27 36.0458 48.73 34.8398 47.65C33.6518 46.552 33.0578 45.202 33.0578 43.6Z" fill="black"/>
</svg>
