<svg width="31" height="36" viewBox="0 0 31 36" fill="none" xmlns="http://www.w3.org/2000/svg">
<path d="M16.4567 2.05969C16.798 1.34207 16.4946 0.482856 15.7792 0.140572C15.0637 -0.201711 14.2071 0.102552 13.8658 0.820166L0.478158 28.9728C-0.686117 31.4212 0.348824 34.3526 2.78978 35.5204C5.23073 36.6882 8.15335 35.6501 9.31762 33.2018L14.4615 22.3849L17.1657 16.5735C17.504 15.848 18.2303 15.3845 19.0287 15.3845C19.8272 15.3845 20.5535 15.848 20.8918 16.5735L23.6018 22.3849L25.4641 26.3013L27.3265 30.2178C27.805 31.224 27.3747 32.4312 26.3653 32.9141C25.3559 33.397 24.1497 32.9727 23.6712 31.9665L19.4599 23.2382C19.1162 22.5259 18.2635 22.2257 17.5514 22.5664C16.8335 22.9098 16.5314 23.7735 16.8778 24.4915L21.0821 33.2052C22.2385 35.6369 25.1533 36.6622 27.5927 35.4952C30.032 34.3282 31.072 31.4108 29.9156 28.9791L23.6465 15.796C22.9631 13.9093 21.16 12.5618 19.0428 12.5618C17.068 12.5618 15.3663 13.7343 14.5918 15.4231L6.72678 31.9623C6.24501 32.9754 5.03566 33.4049 4.02556 32.9217C3.01552 32.4385 2.58729 31.2255 3.06906 30.2124L16.4567 2.05969Z" fill="#22242C"/>
</svg>
