<svg width="79" height="79" viewBox="0 0 79 79" fill="none" xmlns="http://www.w3.org/2000/svg">
<path d="M32 4.33013C36.641 1.65063 42.359 1.65063 47 4.33013L66.208 15.4199C70.849 18.0994 73.708 23.0513 73.708 28.4103L73.708 50.5897C73.708 55.9487 70.849 60.9006 66.208 63.5801L47 74.6699C42.359 77.3494 36.641 77.3494 32 74.6699L12.792 63.5801C8.15098 60.9006 5.292 55.9487 5.292 50.5897L5.292 28.4103C5.292 23.0513 8.15098 18.0994 12.792 15.4199L32 4.33013Z" fill="#D9E1FF"/>
<path d="M32.3908 43.6H35.2258C35.2258 44.374 35.5678 45.067 36.2518 45.679C36.9538 46.273 37.8268 46.57 38.8708 46.57C39.9868 46.57 40.8508 46.3 41.4628 45.76C42.0748 45.22 42.3808 44.5 42.3808 43.6C42.3808 42.754 42.0478 42.052 41.3818 41.494C40.7338 40.918 39.8518 40.63 38.7358 40.63H37.5208V38.065H38.7358C39.7798 38.065 40.5988 37.804 41.1928 37.282C41.8048 36.742 42.1108 36.058 42.1108 35.23C42.1108 34.456 41.8138 33.817 41.2198 33.313C40.6438 32.791 39.8608 32.53 38.8708 32.53C37.8628 32.53 37.0438 32.791 36.4138 33.313C35.8018 33.817 35.4958 34.456 35.4958 35.23H32.6608C32.6608 33.718 33.2278 32.44 34.3618 31.396C35.5138 30.352 37.0168 29.83 38.8708 29.83C40.6708 29.83 42.1288 30.352 43.2448 31.396C44.3788 32.44 44.9458 33.718 44.9458 35.23C44.9458 36.454 44.4958 37.498 43.5958 38.362C43.1998 38.74 42.7498 39.046 42.2458 39.28V39.415C42.8038 39.667 43.2988 39.982 43.7308 40.36C44.7208 41.278 45.2158 42.403 45.2158 43.735C45.2158 45.319 44.6218 46.642 43.4338 47.704C42.2638 48.748 40.7428 49.27 38.8708 49.27C36.9448 49.27 35.3788 48.73 34.1728 47.65C32.9848 46.552 32.3908 45.202 32.3908 43.6Z" fill="black"/>
</svg>
